<svg xmlns="http://www.w3.org/2000/svg" viewBox="0 0 1141 1280"><defs><style>.cls-1{fill:#4b4b4c;}</style></defs><g id="Artwork"><path class="cls-1" d="M170.18,51.58a58.07,58.07,0,0,0-58,58V910.66A58.15,58.15,0,0,0,161.57,968h17.21a58.15,58.15,0,0,0,49.4-57.36V109.58A58.07,58.07,0,0,0,170.18,51.58Z"/><path class="cls-1" d="M170.18,34.18a75.49,75.49,0,0,0-75.41,75.4V910.66a75.61,75.61,0,0,0,65,74.68l20.22.08.59-.08a75.61,75.61,0,0,0,65-74.68V109.58A75.49,75.49,0,0,0,170.18,34.18Zm66.7,876.48a66.68,66.68,0,0,1-57.48,66.06H161a66.68,66.68,0,0,1-57.48-66.06V109.58a66.71,66.71,0,0,1,133.41,0Z"/><path class="cls-1" d="M170.17,42.88a66.71,66.71,0,0,0-66.7,66.7V910.66A66.68,66.68,0,0,0,161,976.72H179.4a66.68,66.68,0,0,0,57.48-66.06V109.58A66.71,66.71,0,0,0,170.17,42.88Zm58,867.78A58.15,58.15,0,0,1,178.78,968H161.57a58.15,58.15,0,0,1-49.4-57.36V109.58a58,58,0,0,1,116,0Z"/><path class="cls-1" d="M437.22,452.15a58.07,58.07,0,0,0-58,58V910.66A58.15,58.15,0,0,0,428.61,968h17.21A58.31,58.31,0,0,0,495,915.74V505.06A58.29,58.29,0,0,0,437.22,452.15Z"/><path class="cls-1" d="M437.22,434.75a75.51,75.51,0,0,0-74.91,66.7h-.73V910.66l.23,8.7h.51a75.66,75.66,0,0,0,64.49,66l20.23.08.59-.08a75.82,75.82,0,0,0,64.73-68.52l0-412.12,0-.7C509.21,465.16,476.21,434.75,437.22,434.75Zm66.47,481.36a66.76,66.76,0,0,1-57.25,60.61H428a66.68,66.68,0,0,1-57.48-66.06h-.24V510.15h.24a66.7,66.7,0,0,1,133.17-5.45Z"/><path class="cls-1" d="M437.22,443.45a66.67,66.67,0,0,0-66.7,66.7h-.24V910.66h.24A66.68,66.68,0,0,0,428,976.72h18.44a66.76,66.76,0,0,0,57.25-60.61V504.7A66.68,66.68,0,0,0,437.22,443.45ZM495,915.74A58.31,58.31,0,0,1,445.82,968H428.61a58.15,58.15,0,0,1-49.4-57.36V510.15A58,58,0,0,1,495,505.06Z"/><path class="cls-1" d="M704.2,452.15a58.07,58.07,0,0,0-58,58v8.7h-.4V902l.4,8.7A58.19,58.19,0,0,0,695.66,968h17.1a57.77,57.77,0,0,0,49-50.6V503.33A57.81,57.81,0,0,0,704.2,452.15Z"/><path class="cls-1" d="M704.2,434.75a75.51,75.51,0,0,0-74.9,66.7h-.9V910.66l.4,8.7h.51a75.68,75.68,0,0,0,64.55,66l20.1.08.59-.08a75.16,75.16,0,0,0,64.6-66.49l.05-416-.05-.93A75.17,75.17,0,0,0,704.2,434.75Zm66.3,483.16a66.69,66.69,0,0,1-57.13,58.81H695a66.74,66.74,0,0,1-57.54-66.06h-.4V510.15h.4a66.7,66.7,0,0,1,133-7.31Z"/><path class="cls-1" d="M704.2,443.45a66.67,66.67,0,0,0-66.7,66.7h-.4V910.66h.4A66.74,66.74,0,0,0,695,976.72h18.33a66.69,66.69,0,0,0,57.13-58.81V502.84A66.64,66.64,0,0,0,704.2,443.45Zm57.6,474a57.77,57.77,0,0,1-49,50.6h-17.1a58.19,58.19,0,0,1-49.46-57.36l-.4-8.7V518.85h.4v-8.7a58,58,0,0,1,115.6-6.82Z"/><path class="cls-1" d="M971.23,452.15a58.07,58.07,0,0,0-58,58v8.7h-.41V902l.41,8.7A58.19,58.19,0,0,0,962.68,968h17.1a57.79,57.79,0,0,0,49-50.6V503.33A57.82,57.82,0,0,0,971.23,452.15Z"/><path class="cls-1" d="M1046.18,501.91a75.41,75.41,0,0,0-149.86-.46h-.9V910.66l.41,8.7h.5a75.69,75.69,0,0,0,64.55,66l20.11.08.58-.08a75.17,75.17,0,0,0,64.61-66.49l0-416Zm-8.65,416a66.7,66.7,0,0,1-57.14,58.81H962.07a66.73,66.73,0,0,1-57.54-66.06h-.41V510.15h.41a66.7,66.7,0,0,1,133-7.31Z"/><path class="cls-1" d="M971.23,443.45a66.67,66.67,0,0,0-66.7,66.7h-.41V910.66h.41a66.73,66.73,0,0,0,57.54,66.06h18.32a66.7,66.7,0,0,0,57.14-58.81V502.84A66.64,66.64,0,0,0,971.23,443.45Zm57.6,474a57.79,57.79,0,0,1-49,50.6h-17.1a58.19,58.19,0,0,1-49.45-57.36l-.41-8.7V518.85h.41v-8.7a58,58,0,0,1,115.6-6.82Z"/><path class="cls-1" d="M156.82,1208.26v-101.5h14.5v88.89h55v12.61Z"/><path class="cls-1" d="M255.14,1116.62a9.29,9.29,0,0,1-6.75-2.61,8.56,8.56,0,0,1-2.68-6.38,8.73,8.73,0,0,1,2.68-6.53,9.29,9.29,0,0,1,6.75-2.61,9.44,9.44,0,0,1,6.74,2.54,8.33,8.33,0,0,1,2.68,6.31,9,9,0,0,1-9.42,9.28Zm-7,91.64v-76.85H262.1v76.85Z"/><path class="cls-1" d="M336.92,1130.68a36.42,36.42,0,0,1,16.6,3.63,26,26,0,0,1,11.24,11q4.07,7.39,4.06,18.71v44.22H354.9v-42.63q0-11.16-5.44-16.82t-15.29-5.66a27.23,27.23,0,0,0-12.91,2.91,19.78,19.78,0,0,0-8.48,8.55q-3,5.66-3,14.07v39.58H295.88v-76.85h13.34v20.74l-2.17-5.51a26.65,26.65,0,0,1,11.6-11.75A38.08,38.08,0,0,1,336.92,1130.68Z"/><path class="cls-1" d="M433.78,1205.07a41.44,41.44,0,0,1-19.93-4.71,36,36,0,0,1-13.92-13.12,39.38,39.38,0,0,1,0-38.94,35.65,35.65,0,0,1,13.92-13,42,42,0,0,1,19.93-4.64,40.26,40.26,0,0,1,18,4,30.41,30.41,0,0,1,13,12.26q4.86,8.27,4.86,20.88t-4.86,20.73a31.36,31.36,0,0,1-13,12.4A39,39,0,0,1,433.78,1205.07Zm1.74,32.19a71.21,71.21,0,0,1-20.51-3,42.32,42.32,0,0,1-16.17-8.48l6.67-10.73a39.45,39.45,0,0,0,13.19,7.32,50.16,50.16,0,0,0,16.39,2.68q13.62,0,20-6.38t6.38-19.43V1183l1.45-15.22-.72-15.37v-21H475.4v66.41q0,20.31-10.15,29.87T435.52,1237.26Zm-.14-44.37A28.37,28.37,0,0,0,449,1189.7a23.83,23.83,0,0,0,9.35-8.84,26.68,26.68,0,0,0,0-26.1A23.4,23.4,0,0,0,449,1146a28.92,28.92,0,0,0-13.63-3.11,29.3,29.3,0,0,0-13.7,3.11,23.23,23.23,0,0,0-9.43,8.78,26.68,26.68,0,0,0,0,26.1,23.65,23.65,0,0,0,9.43,8.84A28.73,28.73,0,0,0,435.38,1192.89Z"/><path class="cls-1" d="M542.1,1209.13a41.29,41.29,0,0,1-20.52-5.07,37.48,37.48,0,0,1-14.28-14,39.31,39.31,0,0,1-5.22-20.23,38.8,38.8,0,0,1,5.22-20.23,38,38,0,0,1,14.21-13.85,41.19,41.19,0,0,1,20.59-5.08,41.69,41.69,0,0,1,20.52,5,36.53,36.53,0,0,1,14.21,13.85,42.58,42.58,0,0,1,0,40.6,37,37,0,0,1-14.21,13.92A41.29,41.29,0,0,1,542.1,1209.13Zm0-12.18a26.42,26.42,0,0,0,13.27-3.33,23.55,23.55,0,0,0,9.21-9.5,29.58,29.58,0,0,0,3.33-14.28,29.11,29.11,0,0,0-3.33-14.29,23.86,23.86,0,0,0-9.21-9.35,26.42,26.42,0,0,0-13.27-3.33,26,26,0,0,0-13.19,3.33,25,25,0,0,0-9.28,9.35,28.09,28.09,0,0,0-3.48,14.29,28.55,28.55,0,0,0,3.48,14.28,24.65,24.65,0,0,0,9.28,9.5A26,26,0,0,0,542.1,1197Z"/><path class="cls-1" d="M704.65,1130.68a35.67,35.67,0,0,1,16.39,3.63,25.75,25.75,0,0,1,11.09,11q4,7.39,4,18.71v44.22H722.2v-42.63q0-11.16-5.22-16.82t-14.65-5.66a24.61,24.61,0,0,0-12.18,2.91,19.38,19.38,0,0,0-8,8.55q-2.83,5.66-2.83,14.07v39.58H665.36v-42.63q0-11.16-5.15-16.82t-14.72-5.66a24.29,24.29,0,0,0-12,2.91,19.83,19.83,0,0,0-8.12,8.55q-2.91,5.66-2.9,14.07v39.58H608.51v-76.85h13.34v20.45l-2.17-5.22a26.2,26.2,0,0,1,11.17-11.75,35.43,35.43,0,0,1,17.54-4.21,33,33,0,0,1,19,5.44q8,5.45,10.44,16.46l-5.66-2.32a28.93,28.93,0,0,1,12.18-14.21A38,38,0,0,1,704.65,1130.68Z"/><path class="cls-1" d="M803.26,1209.13a44.77,44.77,0,0,1-21.68-5.07,36.48,36.48,0,0,1-14.5-13.92,39.66,39.66,0,0,1-5.15-20.3,40.54,40.54,0,0,1,5-20.3,36.1,36.1,0,0,1,13.78-13.85,41.75,41.75,0,0,1,39.51-.08,34.94,34.94,0,0,1,13.42,13.85,43,43,0,0,1,4.85,20.81c0,.58,0,1.26-.07,2s-.12,1.5-.22,2.18H772.81v-10H831L825.3,1168a25.84,25.84,0,0,0-3-13.19,23.26,23.26,0,0,0-8.77-9.07,27.31,27.31,0,0,0-25.88,0,23,23,0,0,0-8.85,9.14,27.6,27.6,0,0,0-3.19,13.41v2.32a26.39,26.39,0,0,0,3.55,13.7,24.33,24.33,0,0,0,9.94,9.36,31.16,31.16,0,0,0,14.64,3.33,32,32,0,0,0,12.4-2.32,27.07,27.07,0,0,0,9.79-7l7.68,9a33.58,33.58,0,0,1-13,9.28A45.15,45.15,0,0,1,803.26,1209.13Z"/><path class="cls-1" d="M899.25,1209.13a44.79,44.79,0,0,1-21.68-5.07,36.55,36.55,0,0,1-14.5-13.92,39.66,39.66,0,0,1-5.15-20.3,40.44,40.44,0,0,1,5-20.3,36,36,0,0,1,13.77-13.85,41.77,41.77,0,0,1,39.52-.08,35,35,0,0,1,13.41,13.85,42.85,42.85,0,0,1,4.86,20.81c0,.58,0,1.26-.07,2s-.13,1.5-.22,2.18H868.8v-10H927l-5.66,3.48a25.84,25.84,0,0,0-3-13.19,23.35,23.35,0,0,0-8.78-9.07,27.31,27.31,0,0,0-25.88,0,23,23,0,0,0-8.84,9.14,27.61,27.61,0,0,0-3.2,13.41v2.32a26.4,26.4,0,0,0,3.56,13.7,24.37,24.37,0,0,0,9.93,9.36,31.2,31.2,0,0,0,14.65,3.33,31.92,31.92,0,0,0,12.39-2.32,27,27,0,0,0,9.79-7l7.69,9a33.61,33.61,0,0,1-13,9.28A45.11,45.11,0,0,1,899.25,1209.13Z"/><path class="cls-1" d="M950,1142.87v-11.46h49v11.46Zm37.42,66.26q-11.61,0-18-6.23t-6.38-17.84v-70.47H977v69.89q0,6.24,3.12,9.57t8.92,3.34a16.41,16.41,0,0,0,10.88-3.63l4.35,10a20.24,20.24,0,0,1-7.62,4.06A32.32,32.32,0,0,1,987.42,1209.13Z"/></g></svg>