<svg width="220" height="82" viewBox="0 0 220 82" fill="none" xmlns="http://www.w3.org/2000/svg">
<g clip-path="url(#clip0_515_2)">
<path d="M10.7196 22.0436C11.8669 20.1904 14.4052 19.0308 16.9639 19.009C20.1873 19.0108 23.413 18.9798 26.6341 19.0199C30.1011 19.1036 33.2061 21.6158 33.1356 24.4064C33.1424 34.5569 33.0991 44.7092 33.0696 54.8597C31.772 54.8579 30.4722 54.8761 29.1746 54.8579C29.1336 44.8366 29.3362 34.8209 29.2998 24.8014C29.4432 23.4343 28.0136 22.191 26.3086 22.1619C23.2491 22.1218 20.185 22.151 17.1255 22.1637C15.5479 22.1437 13.9886 23.0939 13.9157 24.401C13.9476 37.0636 13.7541 49.7189 13.7678 62.3815C12.4452 62.4762 11.1135 62.4525 9.78857 62.4252C9.79996 50.722 9.85231 39.0005 9.86597 27.2917C9.88191 25.5314 9.61101 23.6473 10.7196 22.0436Z" fill="#231F20"/>
<path d="M0.184385 33.1862C-0.446184 29.4908 3.9678 26.1777 8.53886 26.8203C8.54796 27.8634 8.56162 28.9065 8.54569 29.9496C6.613 29.6801 4.22731 30.4957 4.16585 32.2651C4.07479 41.9168 4.1226 51.5703 4.07252 61.2238C3.98146 62.438 5.32227 63.5248 6.79967 63.6213C22.532 63.6795 38.2576 63.5248 53.9899 63.5485C57.5798 63.5776 60.7554 66.0697 60.7691 68.9532C60.6917 71.6947 60.8807 74.4489 60.6576 77.185C60.2205 80.2596 56.239 82.3367 52.5171 81.9544C37.1717 81.9653 21.8263 81.989 6.48097 81.9781C2.66796 81.8215 -0.29594 78.8998 0.0250354 75.8962C0.0409704 73.1601 0.0409704 70.4223 0.0500761 67.6862C1.39089 67.6789 2.72943 67.6607 4.07252 67.688C4.08617 70.5606 3.9678 73.4223 3.98146 76.2948C3.95414 77.5964 5.29495 78.8561 6.9704 78.8434C22.4797 78.8434 37.9889 78.8215 53.5005 78.8124C55.1737 78.8798 56.8059 77.7985 56.8263 76.4259C56.8559 73.9775 56.84 71.529 56.8491 69.0806C56.8764 67.8118 55.415 66.6941 53.8306 66.7651C38.212 66.7815 22.5912 66.7888 6.97268 66.8015C3.38048 66.8343 0.0113769 64.2639 0.127474 61.3567C0.109263 51.969 0.175279 42.5758 0.184385 33.1862Z" fill="#231F20"/>
<path d="M15.4909 26.8294C18.3728 26.4817 21.4506 27.6158 22.7663 29.7292C23.9524 31.4331 23.4857 33.4264 23.5654 35.2832C23.5221 40.6552 23.422 46.0254 23.4652 51.3973C23.5472 52.586 23.0942 53.9622 24.1276 54.9671C24.9335 55.8136 26.3745 55.9483 27.6083 55.8955C39.0314 55.9046 50.434 55.8372 61.848 55.8045C65.554 55.373 69.5104 57.421 69.9475 60.4847C70.0135 63.4974 70.0112 66.5138 69.9475 69.5266C69.5286 72.5703 65.7133 74.6874 61.9846 74.1449C61.9436 73.1382 61.9823 72.1334 61.9709 71.1267C63.7647 71.3834 65.9273 70.6479 66.1618 69.0587C66.2574 66.4902 66.1754 63.9161 66.1982 61.3457C66.2733 60.0933 64.8733 58.9792 63.3276 58.9501C51.0919 58.9392 38.8538 58.961 26.6272 59.0266C23.0873 59.103 19.7455 56.7474 19.6294 53.8931C19.6021 46.6406 19.6727 39.3864 19.6613 32.1358C19.5475 30.5229 17.3644 29.6619 15.541 29.9659C15.4089 28.9283 15.3885 27.867 15.4909 26.8294Z" fill="#231F20"/>
<path d="M13.1896 73.5442C10.6309 72.4374 9.37205 69.9708 9.80002 67.719C11.1203 67.7263 12.4384 67.719 13.7587 67.7263C13.1805 69.7651 15.3181 71.6583 17.9473 71.216C30.4631 71.1431 42.9925 71.1249 55.522 71.1431C55.4901 72.1407 55.6039 73.1456 55.4651 74.1377C44.001 74.2742 32.5255 74.2323 21.0615 74.3598C18.4299 74.287 15.5525 74.7166 13.1896 73.5442Z" fill="#231F20"/>
</g>
<path d="M41.8279 32.4C41.0879 32.4 40.4679 32.17 39.9679 31.71C39.4879 31.23 39.2479 30.64 39.2479 29.94C39.2479 29.24 39.4879 28.66 39.9679 28.2C40.4679 27.72 41.0879 27.48 41.8279 27.48C42.5679 27.48 43.1779 27.72 43.6579 28.2C44.1579 28.66 44.4079 29.24 44.4079 29.94C44.4079 30.64 44.1579 31.23 43.6579 31.71C43.1779 32.17 42.5679 32.4 41.8279 32.4ZM43.8979 34.38V51H39.6979V34.38H43.8979ZM57.2575 34.14C59.2375 34.14 60.8375 34.77 62.0575 36.03C63.2775 37.27 63.8875 39.01 63.8875 41.25V51H59.6875V41.82C59.6875 40.5 59.3575 39.49 58.6975 38.79C58.0375 38.07 57.1375 37.71 55.9975 37.71C54.8375 37.71 53.9175 38.07 53.2375 38.79C52.5775 39.49 52.2475 40.5 52.2475 41.82V51H48.0475V34.38H52.2475V36.45C52.8075 35.73 53.5175 35.17 54.3775 34.77C55.2575 34.35 56.2175 34.14 57.2575 34.14ZM74.3915 34.11C75.6315 34.11 76.7215 34.36 77.6615 34.86C78.6015 35.34 79.3415 35.97 79.8815 36.75V34.38H84.1115V51.12C84.1115 52.66 83.8015 54.03 83.1815 55.23C82.5615 56.45 81.6315 57.41 80.3915 58.11C79.1515 58.83 77.6515 59.19 75.8915 59.19C73.5315 59.19 71.5915 58.64 70.0715 57.54C68.5715 56.44 67.7215 54.94 67.5215 53.04H71.6915C71.9115 53.8 72.3815 54.4 73.1015 54.84C73.8415 55.3 74.7315 55.53 75.7715 55.53C76.9915 55.53 77.9815 55.16 78.7415 54.42C79.5015 53.7 79.8815 52.6 79.8815 51.12V48.54C79.3415 49.32 78.5915 49.97 77.6315 50.49C76.6915 51.01 75.6115 51.27 74.3915 51.27C72.9915 51.27 71.7115 50.91 70.5515 50.19C69.3915 49.47 68.4715 48.46 67.7915 47.16C67.1315 45.84 66.8015 44.33 66.8015 42.63C66.8015 40.95 67.1315 39.46 67.7915 38.16C68.4715 36.86 69.3815 35.86 70.5215 35.16C71.6815 34.46 72.9715 34.11 74.3915 34.11ZM79.8815 42.69C79.8815 41.67 79.6815 40.8 79.2815 40.08C78.8815 39.34 78.3415 38.78 77.6615 38.4C76.9815 38 76.2515 37.8 75.4715 37.8C74.6915 37.8 73.9715 37.99 73.3115 38.37C72.6515 38.75 72.1115 39.31 71.6915 40.05C71.2915 40.77 71.0915 41.63 71.0915 42.63C71.0915 43.63 71.2915 44.51 71.6915 45.27C72.1115 46.01 72.6515 46.58 73.3115 46.98C73.9915 47.38 74.7115 47.58 75.4715 47.58C76.2515 47.58 76.9815 47.39 77.6615 47.01C78.3415 46.61 78.8815 46.05 79.2815 45.33C79.6815 44.59 79.8815 43.71 79.8815 42.69ZM95.5936 51.27C93.9936 51.27 92.5536 50.92 91.2736 50.22C89.9936 49.5 88.9836 48.49 88.2436 47.19C87.5236 45.89 87.1636 44.39 87.1636 42.69C87.1636 40.99 87.5336 39.49 88.2736 38.19C89.0336 36.89 90.0636 35.89 91.3636 35.19C92.6636 34.47 94.1136 34.11 95.7136 34.11C97.3136 34.11 98.7636 34.47 100.064 35.19C101.364 35.89 102.384 36.89 103.124 38.19C103.884 39.49 104.264 40.99 104.264 42.69C104.264 44.39 103.874 45.89 103.094 47.19C102.334 48.49 101.294 49.5 99.9736 50.22C98.6736 50.92 97.2136 51.27 95.5936 51.27ZM95.5936 47.61C96.3536 47.61 97.0636 47.43 97.7236 47.07C98.4036 46.69 98.9436 46.13 99.3436 45.39C99.7436 44.65 99.9436 43.75 99.9436 42.69C99.9436 41.11 99.5236 39.9 98.6836 39.06C97.8636 38.2 96.8536 37.77 95.6536 37.77C94.4536 37.77 93.4436 38.2 92.6236 39.06C91.8236 39.9 91.4236 41.11 91.4236 42.69C91.4236 44.27 91.8136 45.49 92.5936 46.35C93.3936 47.19 94.3936 47.61 95.5936 47.61ZM127.984 34.14C130.024 34.14 131.664 34.77 132.904 36.03C134.164 37.27 134.794 39.01 134.794 41.25V51H130.594V41.82C130.594 40.52 130.264 39.53 129.604 38.85C128.944 38.15 128.044 37.8 126.904 37.8C125.764 37.8 124.854 38.15 124.174 38.85C123.514 39.53 123.184 40.52 123.184 41.82V51H118.984V41.82C118.984 40.52 118.654 39.53 117.994 38.85C117.334 38.15 116.434 37.8 115.294 37.8C114.134 37.8 113.214 38.15 112.534 38.85C111.874 39.53 111.544 40.52 111.544 41.82V51H107.344V34.38H111.544V36.39C112.084 35.69 112.774 35.14 113.614 34.74C114.474 34.34 115.414 34.14 116.434 34.14C117.734 34.14 118.894 34.42 119.914 34.98C120.934 35.52 121.724 36.3 122.284 37.32C122.824 36.36 123.604 35.59 124.624 35.01C125.664 34.43 126.784 34.14 127.984 34.14ZM154.23 42.33C154.23 42.93 154.19 43.47 154.11 43.95H141.96C142.06 45.15 142.48 46.09 143.22 46.77C143.96 47.45 144.87 47.79 145.95 47.79C147.51 47.79 148.62 47.12 149.28 45.78H153.81C153.33 47.38 152.41 48.7 151.05 49.74C149.69 50.76 148.02 51.27 146.04 51.27C144.44 51.27 143 50.92 141.72 50.22C140.46 49.5 139.47 48.49 138.75 47.19C138.05 45.89 137.7 44.39 137.7 42.69C137.7 40.97 138.05 39.46 138.75 38.16C139.45 36.86 140.43 35.86 141.69 35.16C142.95 34.46 144.4 34.11 146.04 34.11C147.62 34.11 149.03 34.45 150.27 35.13C151.53 35.81 152.5 36.78 153.18 38.04C153.88 39.28 154.23 40.71 154.23 42.33ZM149.88 41.13C149.86 40.05 149.47 39.19 148.71 38.55C147.95 37.89 147.02 37.56 145.92 37.56C144.88 37.56 144 37.88 143.28 38.52C142.58 39.14 142.15 40.01 141.99 41.13H149.88ZM172.746 42.33C172.746 42.93 172.706 43.47 172.626 43.95H160.476C160.576 45.15 160.996 46.09 161.736 46.77C162.476 47.45 163.386 47.79 164.466 47.79C166.026 47.79 167.136 47.12 167.796 45.78H172.326C171.846 47.38 170.926 48.7 169.566 49.74C168.206 50.76 166.536 51.27 164.556 51.27C162.956 51.27 161.516 50.92 160.236 50.22C158.976 49.5 157.986 48.49 157.266 47.19C156.566 45.89 156.216 44.39 156.216 42.69C156.216 40.97 156.566 39.46 157.266 38.16C157.966 36.86 158.946 35.86 160.206 35.16C161.466 34.46 162.916 34.11 164.556 34.11C166.136 34.11 167.546 34.45 168.786 35.13C170.046 35.81 171.016 36.78 171.696 38.04C172.396 39.28 172.746 40.71 172.746 42.33ZM168.396 41.13C168.376 40.05 167.986 39.19 167.226 38.55C166.466 37.89 165.536 37.56 164.436 37.56C163.396 37.56 162.516 37.88 161.796 38.52C161.096 39.14 160.666 40.01 160.506 41.13H168.396ZM180.701 37.83V45.87C180.701 46.43 180.831 46.84 181.091 47.1C181.371 47.34 181.831 47.46 182.471 47.46H184.421V51H181.781C178.241 51 176.471 49.28 176.471 45.84V37.83H174.491V34.38H176.471V30.27H180.701V34.38H184.421V37.83H180.701Z" fill="#231F20"/>
<defs>
<clipPath id="clip0_515_2">
<rect width="70" height="63" fill="white" transform="translate(0 19)"/>
</clipPath>
</defs>
</svg>
