<svg xmlns="http://www.w3.org/2000/svg" viewBox="0 0 1575 448"><defs><style>.cls-1{fill:#fff;}</style></defs><g id="Artwork"><path class="cls-1" d="M59.39,49.35a21,21,0,0,0-21,21V360.68a21.08,21.08,0,0,0,17.9,20.79h6.24a21.08,21.08,0,0,0,17.9-20.79V70.37A21,21,0,0,0,59.39,49.35Z"/><path class="cls-1" d="M59.39,43A27.36,27.36,0,0,0,32.06,70.37V360.68a27.41,27.41,0,0,0,23.56,27.07l7.33,0,.21,0a27.41,27.41,0,0,0,23.56-27.07V70.37A27.36,27.36,0,0,0,59.39,43ZM83.56,360.68a24.17,24.17,0,0,1-20.83,23.95H56.05a24.17,24.17,0,0,1-20.83-23.95V70.37a24.17,24.17,0,1,1,48.34,0Z"/><path class="cls-1" d="M59.39,46.19A24.18,24.18,0,0,0,35.22,70.37V360.68a24.17,24.17,0,0,0,20.83,23.95h6.68a24.17,24.17,0,0,0,20.83-23.95V70.37A24.18,24.18,0,0,0,59.39,46.19Zm21,314.49a21.08,21.08,0,0,1-17.9,20.79H56.27a21.08,21.08,0,0,1-17.9-20.79V70.37a21,21,0,0,1,42,0Z"/><path class="cls-1" d="M156.17,194.51a21,21,0,0,0-21,21V360.68a21.08,21.08,0,0,0,17.9,20.79h6.24a21.15,21.15,0,0,0,17.82-18.94V213.69A21.13,21.13,0,0,0,156.17,194.51Z"/><path class="cls-1" d="M156.17,188.21A27.37,27.37,0,0,0,129,212.38h-.26v148.3l.08,3.16H129a27.43,27.43,0,0,0,23.38,23.91l7.33,0,.21,0a27.47,27.47,0,0,0,23.46-24.83V213.3A27.46,27.46,0,0,0,156.17,188.21Zm24.09,174.45a24.21,24.21,0,0,1-20.75,22h-6.68A24.17,24.17,0,0,1,132,360.68h-.09V215.54H132a24.17,24.17,0,0,1,48.26-2Z"/><path class="cls-1" d="M156.17,191.36A24.16,24.16,0,0,0,132,215.54h-.09V360.68H132a24.17,24.17,0,0,0,20.83,23.95h6.68a24.21,24.21,0,0,0,20.75-22V213.56A24.17,24.17,0,0,0,156.17,191.36Zm20.94,171.17a21.15,21.15,0,0,1-17.82,18.94h-6.24a21.08,21.08,0,0,1-17.9-20.79V215.54a21,21,0,0,1,42-1.85Z"/><path class="cls-1" d="M252.93,194.51a21,21,0,0,0-21,21v3.15h-.15V357.53l.15,3.15a21.09,21.09,0,0,0,17.92,20.79H256a20.93,20.93,0,0,0,17.77-18.34V213.06A21,21,0,0,0,252.93,194.51Z"/><path class="cls-1" d="M252.93,188.21a27.37,27.37,0,0,0-27.15,24.17h-.33v148.3l.15,3.16h.18a27.44,27.44,0,0,0,23.4,23.91l7.28,0,.22,0a27.25,27.25,0,0,0,23.41-24.1l0-150.76,0-.34A27.24,27.24,0,0,0,252.93,188.21Zm24,175.1a24.17,24.17,0,0,1-20.7,21.32h-6.64a24.19,24.19,0,0,1-20.86-23.95h-.14V215.54h.14a24.17,24.17,0,0,1,48.2-2.65Z"/><path class="cls-1" d="M252.93,191.36a24.17,24.17,0,0,0-24.18,24.18h-.14V360.68h.14a24.19,24.19,0,0,0,20.86,23.95h6.64A24.17,24.17,0,0,0,277,363.31V212.89A24.15,24.15,0,0,0,252.93,191.36ZM273.8,363.13A20.93,20.93,0,0,1,256,381.47h-6.2a21.09,21.09,0,0,1-17.92-20.79l-.15-3.15V218.69h.15v-3.15a21,21,0,0,1,41.89-2.48Z"/><path class="cls-1" d="M349.7,194.51a21,21,0,0,0-21,21v3.15h-.15V357.53l.15,3.15a21.09,21.09,0,0,0,17.92,20.79h6.2a20.93,20.93,0,0,0,17.77-18.34V213.06A21,21,0,0,0,349.7,194.51Z"/><path class="cls-1" d="M376.86,212.55a27.33,27.33,0,0,0-54.31-.17h-.32v148.3l.14,3.16h.19A27.42,27.42,0,0,0,346,387.75l7.29,0,.21,0a27.25,27.25,0,0,0,23.41-24.1l0-150.76Zm-3.13,150.76A24.19,24.19,0,0,1,353,384.63h-6.64a24.19,24.19,0,0,1-20.85-23.95h-.15V215.54h.15a24.17,24.17,0,0,1,48.2-2.65Z"/><path class="cls-1" d="M349.7,191.36a24.16,24.16,0,0,0-24.17,24.18h-.15V360.68h.15a24.19,24.19,0,0,0,20.85,23.95H353a24.19,24.19,0,0,0,20.71-21.32V212.89A24.16,24.16,0,0,0,349.7,191.36Zm20.87,171.77a20.93,20.93,0,0,1-17.77,18.34h-6.2a21.09,21.09,0,0,1-17.92-20.79l-.15-3.15V218.69h.15v-3.15a21,21,0,0,1,41.89-2.48Z"/><path class="cls-1" d="M462.16,360.69V241H480.7V345.82H551v14.87Z"/><path class="cls-1" d="M586,252.67a12.42,12.42,0,0,1-8.62-3.08,9.71,9.71,0,0,1-3.43-7.52,9.88,9.88,0,0,1,3.43-7.69A12.42,12.42,0,0,1,586,231.3a12.67,12.67,0,0,1,8.62,3,9.51,9.51,0,0,1,3.43,7.44,10.28,10.28,0,0,1-3.34,7.78A12.13,12.13,0,0,1,586,252.67Zm-8.9,108V270.1h17.8v90.59Z"/><path class="cls-1" d="M688.74,269.25A49.8,49.8,0,0,1,710,273.52a32.28,32.28,0,0,1,14.37,13q5.17,8.72,5.19,22.05v52.13h-17.8V310.44q0-13.15-7-19.83T685.21,284a37.4,37.4,0,0,0-16.5,3.42,24.52,24.52,0,0,0-10.85,10.08q-3.79,6.66-3.8,16.58v46.66h-17.8V270.1h17.06v24.44l-2.78-6.49a32.93,32.93,0,0,1,14.83-13.85Q675.39,269.25,688.74,269.25Z"/><path class="cls-1" d="M810.74,356.93a56.76,56.76,0,0,1-25.5-5.55,44.76,44.76,0,0,1-17.8-15.47,43.31,43.31,0,0,1,0-45.9,44.34,44.34,0,0,1,17.8-15.29,57.41,57.41,0,0,1,25.5-5.47,55.17,55.17,0,0,1,23,4.7,37.88,37.88,0,0,1,16.6,14.44q6.21,9.75,6.21,24.61t-6.21,24.45a39,39,0,0,1-16.6,14.61A53.43,53.43,0,0,1,810.74,356.93ZM813,394.88a98,98,0,0,1-26.23-3.51q-12.71-3.51-20.68-10l8.53-12.65a51.72,51.72,0,0,0,16.88,8.64,69.34,69.34,0,0,0,20.95,3.16q17.43,0,25.59-7.52t8.15-22.91V331L848,313l-.93-18.11V270.1H864v78.28q0,23.94-13,35.22T813,394.88Zm-.18-52.31a38.78,38.78,0,0,0,17.43-3.76,29.7,29.7,0,0,0,12-10.42,29.38,29.38,0,0,0,0-30.77,29.16,29.16,0,0,0-12-10.34,39.58,39.58,0,0,0-17.43-3.67,40.17,40.17,0,0,0-17.52,3.67,29,29,0,0,0-12.06,10.34,29.38,29.38,0,0,0,0,30.77,29.54,29.54,0,0,0,12.06,10.42A39.36,39.36,0,0,0,812.78,342.57Z"/><path class="cls-1" d="M947.39,361.72a56.47,56.47,0,0,1-26.24-6,46.3,46.3,0,0,1-18.26-16.5,43.54,43.54,0,0,1-6.68-23.84,43,43,0,0,1,6.68-23.85,46.94,46.94,0,0,1,18.17-16.32q11.49-6,26.33-6a57,57,0,0,1,26.23,5.89,45.26,45.26,0,0,1,18.17,16.33,46.74,46.74,0,0,1,0,47.86,45.8,45.8,0,0,1-18.17,16.41A56.43,56.43,0,0,1,947.39,361.72Zm0-14.36a36,36,0,0,0,17-3.93,29,29,0,0,0,11.78-11.2,32.64,32.64,0,0,0,4.26-16.83,32.09,32.09,0,0,0-4.26-16.84,29.32,29.32,0,0,0-11.78-11,36,36,0,0,0-17-3.93,35.51,35.51,0,0,0-16.88,3.93A30.21,30.21,0,0,0,914.2,315.4a31.52,31.52,0,0,0,4.45,16.83,30.38,30.38,0,0,0,11.86,11.2A35.51,35.51,0,0,0,947.39,347.36Z"/><path class="cls-1" d="M1153.38,269.25a48.66,48.66,0,0,1,20.95,4.27,31.75,31.75,0,0,1,14.19,13q5.1,8.72,5.1,22.05v52.13h-17.8V310.44q0-13.15-6.68-19.83T1150.42,284a33.72,33.72,0,0,0-15.58,3.42,23.84,23.84,0,0,0-10.29,10.08q-3.61,6.66-3.61,16.58v46.66h-17.8V310.44q0-13.15-6.59-19.83T1077.73,284a33.29,33.29,0,0,0-15.39,3.42A24.37,24.37,0,0,0,1052,297.45q-3.7,6.66-3.71,16.58v46.66h-17.8V270.1h17.06v24.1l-2.78-6.15A32.19,32.19,0,0,1,1059,274.2q9.63-4.95,22.43-4.95,14.08,0,24.29,6.41t13.35,19.4l-7.23-2.74q4.45-10.43,15.58-16.75T1153.38,269.25Z"/><path class="cls-1" d="M1277.61,361.72q-15.77,0-27.72-6a45.3,45.3,0,0,1-18.54-16.41,43.86,43.86,0,0,1-6.58-23.93,44,44,0,0,1,24-40.26,53.56,53.56,0,0,1,25.31-5.89q14.27,0,25.21,5.81a42.79,42.79,0,0,1,17.15,16.32q6.21,10.51,6.22,24.53c0,.68,0,1.48-.1,2.39s-.15,1.77-.28,2.57h-83.62v-11.8H1313l-7.23,4.1a28.27,28.27,0,0,0-15.11-26.23,37.5,37.5,0,0,0-33.1,0,28.2,28.2,0,0,0-11.31,10.77,30.51,30.51,0,0,0-4.07,15.81v2.73a29.25,29.25,0,0,0,4.54,16.15,30.31,30.31,0,0,0,12.7,11,42.65,42.65,0,0,0,18.73,3.93,43.87,43.87,0,0,0,15.85-2.74,34.66,34.66,0,0,0,12.51-8.2l9.83,10.6A43.24,43.24,0,0,1,1299.77,358,62.29,62.29,0,0,1,1277.61,361.72Z"/><path class="cls-1" d="M1398.5,361.72q-15.76,0-27.72-6a45.37,45.37,0,0,1-18.54-16.41,43.86,43.86,0,0,1-6.58-23.93,44,44,0,0,1,24-40.26,53.56,53.56,0,0,1,25.31-5.89q14.26,0,25.21,5.81a42.79,42.79,0,0,1,17.15,16.32q6.21,10.51,6.22,24.53c0,.68,0,1.48-.1,2.39s-.15,1.77-.27,2.57h-83.63v-11.8h74.35l-7.23,4.1a28.27,28.27,0,0,0-15.11-26.23,37.48,37.48,0,0,0-33.09,0,28.17,28.17,0,0,0-11.32,10.77,30.51,30.51,0,0,0-4.07,15.81v2.73a29.25,29.25,0,0,0,4.54,16.15,30.31,30.31,0,0,0,12.7,11,42.65,42.65,0,0,0,18.73,3.93,43.83,43.83,0,0,0,15.85-2.74,34.78,34.78,0,0,0,12.52-8.2l9.82,10.6A43.24,43.24,0,0,1,1420.66,358,62.29,62.29,0,0,1,1398.5,361.72Z"/><path class="cls-1" d="M1461.54,283.61V270.1h62.67v13.51Zm47.84,78.11q-14.84,0-23-7.35t-8.16-21V250.28H1496v82.38q0,7.35,4,11.28t11.4,3.93q8.34,0,13.9-4.27l5.57,11.79a26.68,26.68,0,0,1-9.74,4.79A44.86,44.86,0,0,1,1509.38,361.72Z"/></g></svg>