<svg width="70" height="63" viewBox="0 0 70 63" fill="none" xmlns="http://www.w3.org/2000/svg">
<path d="M10.7196 3.04355C11.8669 1.1904 14.4052 0.0308118 16.9639 0.00896715C20.1873 0.0107875 23.413 -0.0201591 26.6341 0.0198895C30.1011 0.103627 33.2061 2.61576 33.1356 5.40642C33.1424 15.5569 33.0991 25.7092 33.0696 35.8597C31.772 35.8579 30.4722 35.8761 29.1746 35.8579C29.1336 25.8366 29.3362 15.8209 29.2998 5.80144C29.4432 4.43433 28.0136 3.19101 26.3086 3.16188C23.2491 3.12183 20.185 3.15096 17.1255 3.1637C15.5479 3.14368 13.9886 4.09392 13.9157 5.40096C13.9476 18.0636 13.7541 30.7189 13.7678 43.3815C12.4452 43.4762 11.1135 43.4525 9.78857 43.4252C9.79996 31.722 9.85231 20.0005 9.86597 8.29173C9.88191 6.53142 9.61101 4.64732 10.7196 3.04355Z" fill="#231F20"/>
<path d="M0.184385 14.1862C-0.446184 10.4908 3.9678 7.17771 8.53886 7.82031C8.54796 8.86339 8.56162 9.90648 8.54569 10.9496C6.613 10.6801 4.22731 11.4957 4.16585 13.2651C4.07479 22.9168 4.1226 32.5703 4.07252 42.2238C3.98146 43.438 5.32227 44.5248 6.79967 44.6213C22.532 44.6795 38.2576 44.5248 53.9899 44.5485C57.5798 44.5776 60.7554 47.0697 60.7691 49.9532C60.6917 52.6947 60.8807 55.4489 60.6576 58.185C60.2205 61.2596 56.239 63.3367 52.5171 62.9544C37.1717 62.9653 21.8263 62.989 6.48097 62.9781C2.66796 62.8215 -0.29594 59.8998 0.0250354 56.8962C0.0409704 54.1601 0.0409704 51.4223 0.0500761 48.6862C1.39089 48.6789 2.72943 48.6607 4.07252 48.688C4.08617 51.5606 3.9678 54.4223 3.98146 57.2948C3.95414 58.5964 5.29495 59.8561 6.9704 59.8434C22.4797 59.8434 37.9889 59.8215 53.5005 59.8124C55.1737 59.8798 56.8059 58.7985 56.8263 57.4259C56.8559 54.9775 56.84 52.529 56.8491 50.0806C56.8764 48.8118 55.415 47.6941 53.8306 47.7651C38.212 47.7815 22.5912 47.7888 6.97268 47.8015C3.38048 47.8343 0.0113769 45.2639 0.127474 42.3567C0.109263 32.969 0.175279 23.5758 0.184385 14.1862Z" fill="#231F20"/>
<path d="M15.4909 7.82936C18.3728 7.48166 21.4506 8.61577 22.7663 10.7292C23.9524 12.4331 23.4857 14.4264 23.5654 16.2832C23.5221 21.6552 23.422 27.0254 23.4652 32.3973C23.5472 33.586 23.0942 34.9622 24.1276 35.9671C24.9335 36.8136 26.3745 36.9483 27.6083 36.8955C39.0314 36.9046 50.434 36.8372 61.848 36.8045C65.554 36.373 69.5104 38.421 69.9475 41.4847C70.0135 44.4974 70.0112 47.5138 69.9475 50.5266C69.5286 53.5703 65.7133 55.6874 61.9846 55.1449C61.9436 54.1382 61.9823 53.1334 61.9709 52.1267C63.7647 52.3834 65.9273 51.6479 66.1618 50.0587C66.2574 47.4902 66.1754 44.9161 66.1982 42.3457C66.2733 41.0933 64.8733 39.9792 63.3276 39.9501C51.0919 39.9392 38.8538 39.961 26.6272 40.0266C23.0873 40.103 19.7455 37.7474 19.6294 34.8931C19.6021 27.6406 19.6727 20.3864 19.6613 13.1358C19.5475 11.5229 17.3644 10.6619 15.541 10.9659C15.4089 9.92827 15.3885 8.86698 15.4909 7.82936Z" fill="#231F20"/>
<path d="M13.1896 54.5442C10.6309 53.4374 9.37205 50.9708 9.80002 48.719C11.1203 48.7263 12.4384 48.719 13.7587 48.7263C13.1805 50.7651 15.3181 52.6583 17.9473 52.216C30.4631 52.1431 42.9925 52.1249 55.522 52.1431C55.4901 53.1407 55.6039 54.1456 55.4651 55.1377C44.001 55.2742 32.5255 55.2323 21.0615 55.3598C18.4299 55.287 15.5525 55.7166 13.1896 54.5442Z" fill="#231F20"/>
</svg>
